<svg width="40" height="40" viewBox="0 0 40 40" fill="none" xmlns="http://www.w3.org/2000/svg">
<path d="M26.9834 3.3335H13.0167C6.95004 3.3335 3.33337 6.95016 3.33337 13.0168V26.9668C3.33337 33.0502 6.95004 36.6668 13.0167 36.6668H26.9667C33.0334 36.6668 36.65 33.0502 36.65 26.9835V13.0168C36.6667 6.95016 33.05 3.3335 26.9834 3.3335ZM19.1667 28.7502C19.1667 29.3502 18.5667 29.7502 18.0167 29.5168C16 28.6502 13.3667 27.8502 11.5334 27.6168L11.2167 27.5835C10.2 27.4502 9.36671 26.5002 9.36671 25.4668V12.6335C9.36671 11.3502 10.4 10.4002 11.6667 10.5002C13.75 10.6668 16.8334 11.6668 18.7667 12.7668C19.0334 12.9168 19.1667 13.2002 19.1667 13.4835V28.7502ZM30.6334 25.4502C30.6334 26.4835 29.8 27.4335 28.7834 27.5668L28.4334 27.6002C26.6167 27.8502 24 28.6335 21.9834 29.4835C21.4334 29.7168 20.8334 29.3168 20.8334 28.7168V13.4668C20.8334 13.1668 20.9834 12.8835 21.25 12.7335C23.1834 11.6502 26.2 10.6835 28.25 10.5002H28.3167C29.6 10.5002 30.6334 11.5335 30.6334 12.8168V25.4502Z" fill="#546FFF"/>
</svg>

